<svg xmlns="http://www.w3.org/2000/svg" xmlns:xlink="http://www.w3.org/1999/xlink" version="1.1" width="256" height="256" viewBox="0 0 256 256" xml:space="preserve">

<defs>
</defs>
<g style="stroke: none; stroke-width: 0; stroke-dasharray: none; stroke-linecap: butt; stroke-linejoin: miter; stroke-miterlimit: 10; fill: none; fill-rule: nonzero; opacity: 1;" transform="translate(1.4065934065934016 1.4065934065934016) scale(2.81 2.81)" >
	<path d="M 17.854 16.596 c -3.251 0 -5.897 -2.646 -5.897 -5.897 s 2.646 -5.897 5.897 -5.897 s 5.897 2.646 5.897 5.897 S 21.106 16.596 17.854 16.596 z M 17.854 6.802 c -2.149 0 -3.897 1.748 -3.897 3.897 s 1.748 3.897 3.897 3.897 s 3.897 -1.748 3.897 -3.897 S 20.003 6.802 17.854 6.802 z" style="stroke: none; stroke-width: 1; stroke-dasharray: none; stroke-linecap: butt; stroke-linejoin: miter; stroke-miterlimit: 10; fill: rgb(0,35,86); fill-rule: nonzero; opacity: 1;" transform=" matrix(1 0 0 1 0 0) " stroke-linecap="round" />
	<path d="M 75.661 28.77 c -3.252 0 -5.897 -2.646 -5.897 -5.897 s 2.646 -5.897 5.897 -5.897 c 3.251 0 5.896 2.646 5.896 5.897 S 78.912 28.77 75.661 28.77 z M 75.661 18.976 c -2.149 0 -3.897 1.748 -3.897 3.897 s 1.748 3.897 3.897 3.897 c 2.148 0 3.896 -1.748 3.896 -3.897 S 77.81 18.976 75.661 18.976 z" style="stroke: none; stroke-width: 1; stroke-dasharray: none; stroke-linecap: butt; stroke-linejoin: miter; stroke-miterlimit: 10; fill: rgb(0,35,86); fill-rule: nonzero; opacity: 1;" transform=" matrix(1 0 0 1 0 0) " stroke-linecap="round" />
	<path d="M 88.999 85.322 c -0.208 0 -0.418 -0.064 -0.598 -0.199 c -8.25 -6.171 -20.992 -10.391 -34.962 -11.576 c -0.55 -0.046 -0.958 -0.53 -0.911 -1.081 c 0.046 -0.551 0.514 -0.968 1.081 -0.911 c 14.331 1.216 27.449 5.578 35.989 11.967 c 0.442 0.331 0.533 0.958 0.202 1.399 C 89.604 85.184 89.304 85.322 88.999 85.322 z" style="stroke: none; stroke-width: 1; stroke-dasharray: none; stroke-linecap: butt; stroke-linejoin: miter; stroke-miterlimit: 10; fill: rgb(0,35,86); fill-rule: nonzero; opacity: 1;" transform=" matrix(1 0 0 1 0 0) " stroke-linecap="round" />
	<path d="M 1.001 85.322 c -0.305 0 -0.605 -0.139 -0.802 -0.401 c -0.331 -0.442 -0.24 -1.068 0.202 -1.399 c 8.745 -6.541 22.198 -10.93 36.91 -12.041 c 0.545 -0.045 1.031 0.371 1.072 0.922 s -0.371 1.031 -0.922 1.072 c -14.343 1.083 -27.414 5.329 -35.862 11.648 C 1.419 85.258 1.209 85.322 1.001 85.322 z" style="stroke: none; stroke-width: 1; stroke-dasharray: none; stroke-linecap: butt; stroke-linejoin: miter; stroke-miterlimit: 10; fill: rgb(0,35,86); fill-rule: nonzero; opacity: 1;" transform=" matrix(1 0 0 1 0 0) " stroke-linecap="round" />
	<path d="M 45.603 46.796 c -2.026 0 -3.807 -1.066 -4.764 -2.853 l -5.083 -9.485 c -1.873 -3.494 -1.775 -7.611 0.262 -11.013 s 5.619 -5.433 9.584 -5.433 s 7.548 2.031 9.584 5.433 c 2.036 3.401 2.135 7.519 0.263 11.013 l -5.083 9.485 C 49.409 45.729 47.629 46.795 45.603 46.796 z M 45.603 20.013 c -3.255 0 -6.196 1.667 -7.868 4.46 s -1.752 6.172 -0.215 9.042 l 5.083 9.485 c 0.603 1.125 1.725 1.796 3.001 1.796 c 1.276 0 2.397 -0.671 3 -1.796 l 5.083 -9.485 c 1.537 -2.869 1.457 -6.249 -0.215 -9.042 C 51.799 21.68 48.857 20.013 45.603 20.013 z" style="stroke: none; stroke-width: 1; stroke-dasharray: none; stroke-linecap: butt; stroke-linejoin: miter; stroke-miterlimit: 10; fill: rgb(0,35,86); fill-rule: nonzero; opacity: 1;" transform=" matrix(1 0 0 1 0 0) " stroke-linecap="round" />
	<path d="M 14.44 46.485 h -1.315 c -0.552 0 -1 -0.447 -1 -1 c 0 -0.552 0.448 -1 1 -1 h 1.315 c 0.552 0 1 0.448 1 1 C 15.44 46.038 14.993 46.485 14.44 46.485 z" style="stroke: none; stroke-width: 1; stroke-dasharray: none; stroke-linecap: butt; stroke-linejoin: miter; stroke-miterlimit: 10; fill: rgb(248,134,15); fill-rule: nonzero; opacity: 1;" transform=" matrix(1 0 0 1 0 0) " stroke-linecap="round" />
	<path d="M 21.03 46.485 h -1.315 c -0.552 0 -1 -0.447 -1 -1 c 0 -0.552 0.448 -1 1 -1 h 1.315 c 0.552 0 1 0.448 1 1 C 22.03 46.038 21.583 46.485 21.03 46.485 z" style="stroke: none; stroke-width: 1; stroke-dasharray: none; stroke-linecap: butt; stroke-linejoin: miter; stroke-miterlimit: 10; fill: rgb(248,134,15); fill-rule: nonzero; opacity: 1;" transform=" matrix(1 0 0 1 0 0) " stroke-linecap="round" />
	<path d="M 17.078 43.848 c -0.552 0 -1 -0.448 -1 -1 v -1.315 c 0 -0.552 0.448 -1 1 -1 s 1 0.448 1 1 v 1.315 C 18.078 43.4 17.63 43.848 17.078 43.848 z" style="stroke: none; stroke-width: 1; stroke-dasharray: none; stroke-linecap: butt; stroke-linejoin: miter; stroke-miterlimit: 10; fill: rgb(248,134,15); fill-rule: nonzero; opacity: 1;" transform=" matrix(1 0 0 1 0 0) " stroke-linecap="round" />
	<path d="M 17.078 50.438 c -0.552 0 -1 -0.447 -1 -1 v -1.314 c 0 -0.553 0.448 -1 1 -1 s 1 0.447 1 1 v 1.314 C 18.078 49.99 17.63 50.438 17.078 50.438 z" style="stroke: none; stroke-width: 1; stroke-dasharray: none; stroke-linecap: butt; stroke-linejoin: miter; stroke-miterlimit: 10; fill: rgb(248,134,15); fill-rule: nonzero; opacity: 1;" transform=" matrix(1 0 0 1 0 0) " stroke-linecap="round" />
	<path d="M 80.069 6.68 c -0.26 0 -0.52 -0.11 -0.699 -0.29 c -0.101 -0.1 -0.17 -0.21 -0.221 -0.33 c -0.05 -0.12 -0.08 -0.25 -0.08 -0.38 c 0 -0.07 0.011 -0.13 0.021 -0.2 c 0.01 -0.06 0.03 -0.12 0.06 -0.18 C 79.17 5.24 79.2 5.18 79.24 5.12 c 0.04 -0.05 0.079 -0.1 0.13 -0.15 C 79.6 4.74 79.939 4.63 80.27 4.7 c 0.061 0.01 0.13 0.03 0.19 0.05 c 0.06 0.03 0.109 0.06 0.17 0.1 c 0.05 0.03 0.1 0.08 0.15 0.12 c 0.05 0.05 0.09 0.1 0.119 0.15 C 80.939 5.18 80.97 5.24 81 5.3 c 0.02 0.06 0.04 0.12 0.05 0.18 c 0.02 0.07 0.02 0.13 0.02 0.2 c 0 0.13 -0.02 0.26 -0.069 0.38 c -0.05 0.12 -0.13 0.23 -0.22 0.33 c -0.051 0.04 -0.101 0.08 -0.15 0.12 c -0.061 0.04 -0.11 0.07 -0.17 0.09 c -0.061 0.03 -0.13 0.05 -0.19 0.06 C 80.2 6.67 80.14 6.68 80.069 6.68 z" style="stroke: none; stroke-width: 1; stroke-dasharray: none; stroke-linecap: butt; stroke-linejoin: miter; stroke-miterlimit: 10; fill: rgb(248,134,15); fill-rule: nonzero; opacity: 1;" transform=" matrix(1 0 0 1 0 0) " stroke-linecap="round" />
	<path d="M 68.336 60.698 h -1.315 c -0.553 0 -1 -0.447 -1 -1 s 0.447 -1 1 -1 h 1.315 c 0.553 0 1 0.447 1 1 S 68.889 60.698 68.336 60.698 z" style="stroke: none; stroke-width: 1; stroke-dasharray: none; stroke-linecap: butt; stroke-linejoin: miter; stroke-miterlimit: 10; fill: rgb(248,134,15); fill-rule: nonzero; opacity: 1;" transform=" matrix(1 0 0 1 0 0) " stroke-linecap="round" />
	<path d="M 74.926 60.698 H 73.61 c -0.553 0 -1 -0.447 -1 -1 s 0.447 -1 1 -1 h 1.315 c 0.553 0 1 0.447 1 1 S 75.479 60.698 74.926 60.698 z" style="stroke: none; stroke-width: 1; stroke-dasharray: none; stroke-linecap: butt; stroke-linejoin: miter; stroke-miterlimit: 10; fill: rgb(248,134,15); fill-rule: nonzero; opacity: 1;" transform=" matrix(1 0 0 1 0 0) " stroke-linecap="round" />
	<path d="M 70.973 58.061 c -0.553 0 -1 -0.447 -1 -1 v -1.315 c 0 -0.553 0.447 -1 1 -1 s 1 0.447 1 1 v 1.315 C 71.973 57.613 71.525 58.061 70.973 58.061 z" style="stroke: none; stroke-width: 1; stroke-dasharray: none; stroke-linecap: butt; stroke-linejoin: miter; stroke-miterlimit: 10; fill: rgb(248,134,15); fill-rule: nonzero; opacity: 1;" transform=" matrix(1 0 0 1 0 0) " stroke-linecap="round" />
	<path d="M 70.973 64.65 c -0.553 0 -1 -0.447 -1 -1 v -1.315 c 0 -0.553 0.447 -1 1 -1 s 1 0.447 1 1 v 1.315 C 71.973 64.203 71.525 64.65 70.973 64.65 z" style="stroke: none; stroke-width: 1; stroke-dasharray: none; stroke-linecap: butt; stroke-linejoin: miter; stroke-miterlimit: 10; fill: rgb(248,134,15); fill-rule: nonzero; opacity: 1;" transform=" matrix(1 0 0 1 0 0) " stroke-linecap="round" />
	<path d="M 2.39 27.43 c -0.14 0 -0.26 -0.02 -0.39 -0.07 c -0.12 -0.05 -0.23 -0.13 -0.32 -0.22 c -0.19 -0.18 -0.29 -0.44 -0.29 -0.71 c 0 -0.13 0.02 -0.26 0.07 -0.38 c 0.05 -0.12 0.12 -0.23 0.22 -0.32 c 0.09 -0.1 0.2 -0.17 0.32 -0.22 c 0.19 -0.07 0.39 -0.09 0.58 -0.05 c 0.06 0.01 0.13 0.03 0.19 0.05 c 0.06 0.03 0.12 0.06 0.17 0.09 c 0.06 0.04 0.11 0.08 0.15 0.13 c 0.09 0.09 0.17 0.2 0.22 0.32 c 0.05 0.12 0.08 0.25 0.08 0.38 c 0 0.07 -0.01 0.14 -0.02 0.2 c -0.02 0.06 -0.04 0.13 -0.06 0.19 c -0.03 0.06 -0.06 0.12 -0.09 0.17 c -0.04 0.05 -0.08 0.11 -0.13 0.15 C 3.05 27.19 3 27.23 2.94 27.27 c -0.05 0.03 -0.11 0.06 -0.17 0.09 c -0.06 0.02 -0.12 0.04 -0.19 0.05 C 2.52 27.43 2.45 27.43 2.39 27.43 z" style="stroke: none; stroke-width: 1; stroke-dasharray: none; stroke-linecap: butt; stroke-linejoin: miter; stroke-miterlimit: 10; fill: rgb(248,134,15); fill-rule: nonzero; opacity: 1;" transform=" matrix(1 0 0 1 0 0) " stroke-linecap="round" />
	<path d="M 7.9 68.77 c -0.27 0 -0.52 -0.109 -0.71 -0.3 c -0.18 -0.18 -0.29 -0.439 -0.29 -0.7 c 0 -0.13 0.03 -0.26 0.08 -0.38 c 0.05 -0.13 0.12 -0.24 0.21 -0.33 c 0.38 -0.37 1.05 -0.37 1.42 0 c 0.09 0.09 0.16 0.2 0.21 0.33 c 0.05 0.12 0.08 0.25 0.08 0.38 c 0 0.261 -0.1 0.521 -0.29 0.7 C 8.42 68.66 8.17 68.77 7.9 68.77 z" style="stroke: none; stroke-width: 1; stroke-dasharray: none; stroke-linecap: butt; stroke-linejoin: miter; stroke-miterlimit: 10; fill: rgb(248,134,15); fill-rule: nonzero; opacity: 1;" transform=" matrix(1 0 0 1 0 0) " stroke-linecap="round" />
	<path d="M 81.7 46.58 c -0.261 0 -0.521 -0.101 -0.71 -0.29 c -0.091 -0.09 -0.16 -0.2 -0.21 -0.32 c -0.051 -0.13 -0.08 -0.25 -0.08 -0.38 c 0 -0.27 0.109 -0.53 0.29 -0.71 c 0.229 -0.23 0.579 -0.34 0.909 -0.28 c 0.061 0.02 0.12 0.04 0.181 0.06 c 0.06 0.03 0.12 0.06 0.18 0.09 c 0.05 0.04 0.1 0.08 0.15 0.13 c 0.18 0.18 0.29 0.44 0.29 0.71 c 0 0.13 -0.03 0.25 -0.08 0.38 c -0.051 0.12 -0.12 0.23 -0.21 0.32 c -0.051 0.05 -0.101 0.09 -0.15 0.13 c -0.06 0.03 -0.12 0.06 -0.18 0.09 c -0.061 0.021 -0.12 0.04 -0.181 0.05 C 81.83 46.58 81.77 46.58 81.7 46.58 z" style="stroke: none; stroke-width: 1; stroke-dasharray: none; stroke-linecap: butt; stroke-linejoin: miter; stroke-miterlimit: 10; fill: rgb(248,134,15); fill-rule: nonzero; opacity: 1;" transform=" matrix(1 0 0 1 0 0) " stroke-linecap="round" />
	<path d="M 47.77 8.71 c -0.069 0 -0.13 -0.01 -0.2 -0.02 c -0.06 -0.02 -0.119 -0.04 -0.18 -0.06 c -0.07 -0.03 -0.12 -0.06 -0.18 -0.09 c -0.05 -0.04 -0.101 -0.08 -0.15 -0.13 c -0.189 -0.18 -0.29 -0.44 -0.29 -0.7 c 0 -0.14 0.021 -0.27 0.07 -0.39 S 46.97 7.09 47.06 7 c 0.05 -0.05 0.101 -0.09 0.15 -0.13 c 0.06 -0.03 0.109 -0.06 0.18 -0.09 c 0.061 -0.02 0.12 -0.04 0.18 -0.05 c 0.131 -0.03 0.271 -0.03 0.391 0 c 0.07 0.01 0.13 0.03 0.189 0.05 c 0.061 0.03 0.12 0.06 0.17 0.09 C 48.38 6.91 48.43 6.95 48.47 7 c 0.1 0.09 0.17 0.2 0.22 0.32 c 0.051 0.12 0.08 0.25 0.08 0.39 c 0 0.26 -0.109 0.52 -0.3 0.7 c -0.04 0.05 -0.09 0.09 -0.15 0.13 c -0.05 0.03 -0.109 0.06 -0.17 0.09 c -0.06 0.02 -0.119 0.04 -0.189 0.06 C 47.899 8.7 47.83 8.71 47.77 8.71 z" style="stroke: none; stroke-width: 1; stroke-dasharray: none; stroke-linecap: butt; stroke-linejoin: miter; stroke-miterlimit: 10; fill: rgb(248,134,15); fill-rule: nonzero; opacity: 1;" transform=" matrix(1 0 0 1 0 0) " stroke-linecap="round" />
	<path d="M 47.71 31.918 c -0.428 0 -0.824 -0.277 -0.956 -0.708 c -0.162 -0.528 0.135 -1.087 0.663 -1.249 l 4.35 -1.333 c 0.528 -0.163 1.087 0.135 1.249 0.663 c 0.162 0.528 -0.135 1.087 -0.663 1.249 l -4.35 1.333 C 47.905 31.904 47.807 31.918 47.71 31.918 z" style="stroke: none; stroke-width: 1; stroke-dasharray: none; stroke-linecap: butt; stroke-linejoin: miter; stroke-miterlimit: 10; fill: rgb(248,134,15); fill-rule: nonzero; opacity: 1;" transform=" matrix(1 0 0 1 0 0) " stroke-linecap="round" />
	<path d="M 43.496 31.918 c -0.097 0 -0.196 -0.015 -0.293 -0.044 l -4.35 -1.333 c -0.528 -0.162 -0.825 -0.721 -0.663 -1.249 c 0.162 -0.528 0.722 -0.823 1.249 -0.663 l 4.35 1.333 c 0.528 0.162 0.825 0.721 0.663 1.249 C 44.32 31.642 43.924 31.918 43.496 31.918 z" style="stroke: none; stroke-width: 1; stroke-dasharray: none; stroke-linecap: butt; stroke-linejoin: miter; stroke-miterlimit: 10; fill: rgb(248,134,15); fill-rule: nonzero; opacity: 1;" transform=" matrix(1 0 0 1 0 0) " stroke-linecap="round" />
	<path d="M 46.656 39.214 h -2.107 c -0.552 0 -1 -0.448 -1 -1 s 0.448 -1 1 -1 h 2.107 c 0.553 0 1 0.448 1 1 S 47.209 39.214 46.656 39.214 z" style="stroke: none; stroke-width: 1; stroke-dasharray: none; stroke-linecap: butt; stroke-linejoin: miter; stroke-miterlimit: 10; fill: rgb(248,134,15); fill-rule: nonzero; opacity: 1;" transform=" matrix(1 0 0 1 0 0) " stroke-linecap="round" />
	<path d="M 45.603 65.984 c -0.552 0 -1 -0.447 -1 -1 V 51.179 c 0 -0.553 0.448 -1 1 -1 c 0.553 0 1 0.447 1 1 v 13.806 C 46.603 65.537 46.155 65.984 45.603 65.984 z" style="stroke: none; stroke-width: 1; stroke-dasharray: none; stroke-linecap: butt; stroke-linejoin: miter; stroke-miterlimit: 10; fill: rgb(0,35,86); fill-rule: nonzero; opacity: 1;" transform=" matrix(1 0 0 1 0 0) " stroke-linecap="round" />
	<path d="M 48.797 82.78 c -0.553 0 -1 -0.447 -1 -1 V 68.179 c 0 -1.21 -0.984 -2.194 -2.194 -2.194 s -2.194 0.984 -2.194 2.194 V 81.78 c 0 0.553 -0.448 1 -1 1 s -1 -0.447 -1 -1 V 68.179 c 0 -2.313 1.881 -4.194 4.194 -4.194 c 2.313 0 4.194 1.882 4.194 4.194 V 81.78 C 49.797 82.333 49.35 82.78 48.797 82.78 z" style="stroke: none; stroke-width: 1; stroke-dasharray: none; stroke-linecap: butt; stroke-linejoin: miter; stroke-miterlimit: 10; fill: rgb(0,35,86); fill-rule: nonzero; opacity: 1;" transform=" matrix(1 0 0 1 0 0) " stroke-linecap="round" />
	<path d="M 34.256 60.913 c -0.552 0 -1 -0.447 -1 -1 v -5.525 c 0 -2.313 1.881 -4.194 4.194 -4.194 l 11.336 -0.114 h 5.933 c 1.21 0 2.194 -0.984 2.194 -2.194 V 46.49 c 0 -0.552 0.447 -1 1 -1 s 1 0.448 1 1 v 1.395 c 0 2.313 -1.882 4.194 -4.194 4.194 h -5.923 l -11.336 0.114 c -1.22 0 -2.205 0.984 -2.205 2.194 v 5.525 C 35.256 60.466 34.809 60.913 34.256 60.913 z" style="stroke: none; stroke-width: 1; stroke-dasharray: none; stroke-linecap: butt; stroke-linejoin: miter; stroke-miterlimit: 10; fill: rgb(0,35,86); fill-rule: nonzero; opacity: 1;" transform=" matrix(1 0 0 1 0 0) " stroke-linecap="round" />
	<path d="M 57.914 47.49 c -2.27 0 -4.116 -1.846 -4.116 -4.116 v -0.987 c 0 -0.552 0.447 -1 1 -1 s 1 0.448 1 1 v 0.987 c 0 1.167 0.949 2.116 2.116 2.116 s 2.116 -0.949 2.116 -2.116 v -0.987 c 0 -0.552 0.447 -1 1 -1 s 1 0.448 1 1 v 0.987 C 62.03 45.644 60.184 47.49 57.914 47.49 z" style="stroke: none; stroke-width: 1; stroke-dasharray: none; stroke-linecap: butt; stroke-linejoin: miter; stroke-miterlimit: 10; fill: rgb(0,35,86); fill-rule: nonzero; opacity: 1;" transform=" matrix(1 0 0 1 0 0) " stroke-linecap="round" />
	<path d="M 37.373 65.017 c -0.552 0 -1 -0.447 -1 -1 v -0.987 c 0 -1.167 -0.949 -2.116 -2.116 -2.116 s -2.116 0.949 -2.116 2.116 v 0.987 c 0 0.553 -0.448 1 -1 1 s -1 -0.447 -1 -1 v -0.987 c 0 -2.27 1.847 -4.116 4.116 -4.116 s 4.116 1.847 4.116 4.116 v 0.987 C 38.373 64.569 37.925 65.017 37.373 65.017 z" style="stroke: none; stroke-width: 1; stroke-dasharray: none; stroke-linecap: butt; stroke-linejoin: miter; stroke-miterlimit: 10; fill: rgb(0,35,86); fill-rule: nonzero; opacity: 1;" transform=" matrix(1 0 0 1 0 0) " stroke-linecap="round" />
</g>
</svg>