<?xml version="1.0" encoding="utf-8"?>
<!-- Generator: Adobe Illustrator 24.3.0, SVG Export Plug-In . SVG Version: 6.00 Build 0)  -->
<svg version="1.1" id="Layer_1" xmlns="http://www.w3.org/2000/svg" xmlns:xlink="http://www.w3.org/1999/xlink" x="0px" y="0px"
	 viewBox="0 0 512 512" style="enable-background:new 0 0 512 512;" xml:space="preserve">
<style type="text/css">
	.st0{fill-rule:evenodd;clip-rule:evenodd;fill:#231F20;}
</style>
<g id="XMLID_1_">
	<path id="XMLID_3_" class="st0" d="M159.35,277.9c-4.63-8.56-12.62-11.92-21.88-11.92c-13.47,0-24.13,9.54-24.13,25.53
		c0,16.41,10.1,25.53,24.55,25.53c9.26,0,17.25-5.05,21.6-12.91l-10.24-5.19c-2.24,5.47-5.75,7.15-10.1,7.15
		c-7.57,0-11.08-6.31-11.08-14.59s2.95-14.59,11.08-14.59c2.24,0,6.59,1.12,9.12,6.73L159.35,277.9z"/>
	<path id="XMLID_6_" class="st0" d="M185.44,276.92c8.14,0,11.64,6.31,11.64,14.03c0,8.84-3.51,15.15-11.64,15.15
		s-11.64-6.31-11.64-14.59S177.31,276.92,185.44,276.92z M185.44,265.98c-15.15,0-25.81,9.26-25.81,25.53
		c0,16.41,10.66,25.53,25.81,25.53s25.81-9.26,25.81-25.53C211.25,275.24,200.59,265.98,185.44,265.98z"/>
	<path id="XMLID_7_" class="st0" d="M214.2,315.92h14.31v-30.3c0-4.35,1.82-8.14,7.57-8.14c5.47,0,7.01,3.23,7.01,8v30.44h14.31
		v-29.88c0-4.91,2.52-8.56,7.15-8.56c5.33,0,7.29,3.09,7.29,9.96v28.48h14.31v-37.03c0-11.08-10.24-12.76-15.01-12.76
		c-5.61,0-10.94,1.68-15.57,6.45c-3.23-4.35-7.29-6.45-12.91-6.45c-4.35,0-10.38,1.26-14.03,5.61v-4.49h-14.31v48.68H214.2z"/>
	<path id="XMLID_8_" class="st0" d="M290.65,315.92h14.31v-30.3c0-4.35,1.82-8.14,7.57-8.14c5.47,0,7.01,3.23,7.01,8v30.44h14.31
		v-29.88c0-4.91,2.52-8.56,7.15-8.56c5.33,0,7.29,3.09,7.29,9.96v28.48h14.31v-37.03c0-11.08-10.24-12.76-15.01-12.76
		c-5.61,0-10.94,1.68-15.57,6.45c-3.23-4.35-7.29-6.45-12.91-6.45c-4.35,0-10.38,1.26-14.03,5.61v-4.49h-14.31v48.68H290.65z"/>
	<path id="XMLID_11_" class="st0" d="M391.22,276.92c8.14,0,11.64,6.31,11.64,14.03c0,8.84-3.51,15.15-11.64,15.15
		c-8.14,0-11.64-6.31-11.64-14.59S383.09,276.92,391.22,276.92z M391.22,265.98c-15.15,0-25.81,9.26-25.81,25.53
		c0,16.41,10.66,25.53,25.81,25.53s25.81-9.26,25.81-25.53S406.37,265.98,391.22,265.98z"/>
	<path id="XMLID_12_" class="st0" d="M420.96,315.92h14.31v-30.3c0-4.35,1.82-8.14,7.57-8.14c5.47,0,7.01,3.23,7.01,8v30.44h14.31
		v-35.91c0-7.29-3.23-14.03-14.73-14.03c-4.35,0-10.38,1.26-14.03,5.61v-4.35H421.1v48.68H420.96z"/>
	<path id="XMLID_13_" class="st0" d="M511.58,272.99c-6.59-4.35-14.03-7.01-21.46-7.01c-9.82,0-20.62,4.77-20.62,16.97
		c0,17.25,28.76,11.22,28.76,18.8c0,4.35-5.33,4.91-7.72,4.91c-6.45,0-10.94-2.67-15.29-6.87l-8.84,7.72
		c7.15,6.59,13.19,9.54,23.71,9.54c10.66,0,21.88-4.63,21.88-17.39c0-18.24-28.76-11.36-28.76-19.64c0-2.52,2.52-3.79,6.17-3.79
		c4.49,0,10.66,1.82,13.47,5.19L511.58,272.99z"/>
	<path id="XMLID_14_" class="st0" d="M159.35,221.93c-4.63-8.56-12.62-11.92-21.88-11.92c-13.47,0-24.13,9.54-24.13,25.53
		c0,16.41,10.1,25.53,24.55,25.53c9.26,0,17.25-5.05,21.6-12.91l-10.24-5.19c-2.24,5.47-5.75,7.15-10.1,7.15
		c-7.57,0-11.08-6.31-11.08-14.59s2.95-14.59,11.08-14.59c2.24,0,6.59,1.12,9.12,6.73L159.35,221.93z"/>
	<path id="XMLID_15_" class="st0" d="M162.72,259.95h14.31v-28.2c0-5.33,3.37-6.87,11.92-7.86l1.54-0.14l-0.14-12.62
		c-5.05,0.42-10.24,2.24-13.33,5.05v-4.91h-14.31V259.95z"/>
	<path id="XMLID_18_" class="st0" d="M238.89,238.63c-0.14-15.01-6.17-28.48-23.85-28.48c-14.87,0-23.85,9.82-23.85,27.07
		c0,13.75,8.84,24.13,23.85,24.13c10.94,0,18.66-4.35,23.57-13.47l-10.66-5.61c-4.07,5.89-6.59,8.56-11.92,8.56
		c-4.63,0-10.52-2.95-10.66-12.2H238.89z M205.22,229.79c0.7-6.45,5.61-9.26,9.68-9.26s9.26,2.24,9.68,9.26H205.22z"/>
	<path id="XMLID_21_" class="st0" d="M271.57,239.61c0,7.43-4.21,11.08-9.82,11.08c-3.51,0-6.73-1.68-6.73-5.47
		c0-3.93,3.23-5.33,6.87-6.31l9.54-2.81v3.51H271.57z M285.32,224.18c-0.14-10.94-8.42-14.03-21.6-14.03
		c-6.59,0-19.5,1.26-20.06,15.29h13.75c0.7-4.91,2.95-6.45,7.43-6.45c3.79,0,6.73,1.54,6.73,5.19v4.07l-5.19,0.7
		c-15.57,2.24-24.97,6.31-24.97,17.96c0,9.26,7.01,14.45,16.27,14.45c5.05,0,12.2-2.52,14.59-6.31h0.14
		c0.14,1.68,0.42,3.37,0.98,5.05h13.19c-1.12-3.09-1.26-6.73-1.26-10.1V224.18z"/>
	<path id="XMLID_22_" class="st0" d="M318.84,212.25h-8.56v-14.03h-14.31v14.03h-7.01v8.84h7.01v25.53
		c0,7.01,1.68,14.59,13.89,14.59c3.09,0,7.29-0.42,9.12-0.56v-11.22c-0.7,0.14-2.81,0.28-4.35,0.28c-2.52,0-4.49-0.98-4.49-4.91
		v-23.85h8.56v-8.7H318.84z"/>
	<path id="XMLID_25_" class="st0" d="M324.17,211.27v48.68h14.31v-48.68H324.17z M338.48,205.8v-10.94h-14.31v10.94H338.48z"/>
	<polygon id="XMLID_26_" class="st0" points="357.56,259.95 372.01,259.95 388.56,211.27 373.41,211.27 364.99,245.64 
		364.85,245.64 356.44,211.27 341.15,211.27 	"/>
	<path id="XMLID_29_" class="st0" d="M434.71,238.63c-0.14-15.01-6.17-28.48-23.85-28.48c-14.87,0-23.85,9.82-23.85,27.07
		c0,13.75,8.84,24.13,23.85,24.13c10.94,0,18.66-4.35,23.57-13.47l-10.66-5.61c-4.07,5.89-6.59,8.56-11.92,8.56
		c-4.63,0-10.52-2.95-10.66-12.2H434.71z M401.04,229.79c0.7-6.45,5.61-9.26,9.68-9.26c4.07,0,9.26,2.24,9.68,9.26H401.04z"/>
	<path id="XMLID_32_" class="st0" d="M53.44,209.17c-14.73,0-27.63,5.47-37.59,15.57C5.61,235.12,0,248.59,0,262.75
		c0,14.17,5.47,27.49,15.71,37.73c10.24,10.24,23.57,15.85,37.73,15.85c14.03,0,27.77-5.61,38.29-15.99
		c9.96-9.82,15.29-22.86,15.29-37.59c0-14.59-5.33-27.77-15.43-37.87C81.22,214.64,68.03,209.17,53.44,209.17z M53.58,218.85
		c12.06,0,22.72,4.49,31.14,12.91c8.28,8.28,12.62,19.08,12.62,31c0,12.06-4.21,22.58-12.48,30.72
		c-8.7,8.56-19.78,13.05-31.28,13.05c-11.64,0-22.44-4.49-30.86-12.91c-8.42-8.42-13.05-19.36-13.05-30.86
		c0-11.64,4.63-22.58,13.05-31.14C31,223.34,41.52,218.85,53.58,218.85z"/>
	<path id="XMLID_33_" class="st0" d="M52.88,253.92c-3.09-5.47-8.14-7.72-14.17-7.72c-8.7,0-15.71,6.17-15.71,16.55
		c0,10.66,6.59,16.55,15.99,16.55c6.03,0,11.22-3.37,14.03-8.42l-6.59-3.37c-1.54,3.51-3.79,4.63-6.59,4.63
		c-4.91,0-7.15-4.07-7.15-9.54c0-5.33,1.96-9.54,7.15-9.54c1.4,0,4.21,0.7,5.89,4.35L52.88,253.92z"/>
	<path id="XMLID_34_" class="st0" d="M83.74,253.92c-3.09-5.47-8.14-7.72-14.17-7.72c-8.7,0-15.71,6.17-15.71,16.55
		c0,10.66,6.59,16.55,15.99,16.55c6.03,0,11.22-3.37,14.03-8.42l-6.59-3.37c-1.54,3.51-3.79,4.63-6.59,4.63
		c-4.91,0-7.15-4.07-7.15-9.54c0-5.33,1.96-9.54,7.15-9.54c1.4,0,4.21,0.7,5.89,4.35L83.74,253.92z"/>
</g>
</svg>
