<svg xmlns="http://www.w3.org/2000/svg" xmlns:xlink="http://www.w3.org/1999/xlink" version="1.1" width="256" height="256" viewBox="0 0 256 256" xml:space="preserve">

<defs>
</defs>
<g style="stroke: none; stroke-width: 0; stroke-dasharray: none; stroke-linecap: butt; stroke-linejoin: miter; stroke-miterlimit: 10; fill: none; fill-rule: nonzero; opacity: 1;" transform="translate(1.4065934065934016 1.4065934065934016) scale(2.81 2.81)" >
	<path d="M 71.364 37.5 c -3.484 0 -6.319 3.364 -6.319 7.5 c 0 4.136 2.835 7.5 6.319 7.5 s 6.319 -3.364 6.319 -7.5 C 77.684 40.865 74.849 37.5 71.364 37.5 z" style="stroke: none; stroke-width: 1; stroke-dasharray: none; stroke-linecap: butt; stroke-linejoin: miter; stroke-miterlimit: 10; fill: rgb(0,0,0); fill-rule: nonzero; opacity: 1;" transform=" matrix(1 0 0 1 0 0) " stroke-linecap="round" />
	<path d="M 60.917 15.917 C 44.88 15.917 31.833 28.963 31.833 45 c 0 16.036 13.047 29.083 29.084 29.083 C 76.953 74.083 90 61.036 90 45 C 90 28.963 76.953 15.917 60.917 15.917 z M 58.747 53.014 c 0 0.684 -0.349 1.319 -0.925 1.687 c -1.847 1.178 -3.981 1.8 -6.173 1.8 c -6.341 0 -11.5 -5.159 -11.5 -11.5 s 5.159 -11.5 11.5 -11.5 c 2.191 0 4.325 0.622 6.173 1.799 c 0.931 0.593 1.205 1.83 0.611 2.761 c -0.593 0.932 -1.828 1.206 -2.762 0.612 c -1.203 -0.767 -2.594 -1.172 -4.022 -1.172 c -4.136 0 -7.5 3.364 -7.5 7.5 c 0 4.136 3.364 7.5 7.5 7.5 c 1.075 0 2.129 -0.229 3.098 -0.671 V 47 h -3.962 c -1.104 0 -2 -0.896 -2 -2 s 0.896 -2 2 -2 h 5.962 c 1.104 0 2 0.896 2 2 V 53.014 z M 71.364 56.5 c -5.69 0 -10.319 -5.159 -10.319 -11.5 s 4.629 -11.5 10.319 -11.5 S 81.684 38.659 81.684 45 S 77.055 56.5 71.364 56.5 z" style="stroke: none; stroke-width: 1; stroke-dasharray: none; stroke-linecap: butt; stroke-linejoin: miter; stroke-miterlimit: 10; fill: rgb(0,0,0); fill-rule: nonzero; opacity: 1;" transform=" matrix(1 0 0 1 0 0) " stroke-linecap="round" />
	<path d="M 24.425 48.002 H 2 c -1.104 0 -2 -0.896 -2 -2 s 0.896 -2 2 -2 h 22.425 c 1.104 0 2 0.896 2 2 S 25.53 48.002 24.425 48.002 z" style="stroke: none; stroke-width: 1; stroke-dasharray: none; stroke-linecap: butt; stroke-linejoin: miter; stroke-miterlimit: 10; fill: rgb(0,0,0); fill-rule: nonzero; opacity: 1;" transform=" matrix(1 0 0 1 0 0) " stroke-linecap="round" />
	<path d="M 28.987 32.797 H 6.562 c -1.104 0 -2 -0.896 -2 -2 s 0.896 -2 2 -2 h 22.425 c 1.104 0 2 0.896 2 2 S 30.091 32.797 28.987 32.797 z" style="stroke: none; stroke-width: 1; stroke-dasharray: none; stroke-linecap: butt; stroke-linejoin: miter; stroke-miterlimit: 10; fill: rgb(0,0,0); fill-rule: nonzero; opacity: 1;" transform=" matrix(1 0 0 1 0 0) " stroke-linecap="round" />
	<path d="M 28.987 63.206 H 6.562 c -1.104 0 -2 -0.896 -2 -2 s 0.896 -2 2 -2 h 22.425 c 1.104 0 2 0.896 2 2 S 30.091 63.206 28.987 63.206 z" style="stroke: none; stroke-width: 1; stroke-dasharray: none; stroke-linecap: butt; stroke-linejoin: miter; stroke-miterlimit: 10; fill: rgb(0,0,0); fill-rule: nonzero; opacity: 1;" transform=" matrix(1 0 0 1 0 0) " stroke-linecap="round" />
</g>
</svg>